<svg width="14" height="14" viewBox="0 0 14 14" fill="none" xmlns="http://www.w3.org/2000/svg">
<circle cx="7" cy="7" r="7" fill="#F5F3F1"/>
<path d="M9.09984 8.31584C8.61684 9.37634 7.99734 9.92235 6.96834 9.92235C6.66384 9.92235 6.32784 9.77534 6.13884 9.49184C5.99184 9.29234 5.85534 8.85134 5.85534 8.31584C5.85534 7.05584 6.21234 5.64884 7.02084 4.59884C7.38834 4.11584 7.83984 3.86384 8.28084 3.86384C8.66934 3.86384 8.95284 4.02134 9.14184 4.39934C9.34134 4.78784 9.37284 5.49134 9.32034 6.00584H9.62484C9.83484 5.05034 10.1288 4.15784 10.3808 3.51734L10.0868 3.46484L9.67734 4.03184C9.36234 3.68534 8.76384 3.47534 8.02884 3.47534C6.87384 3.47534 6.10734 3.85334 5.59284 4.28384C4.50084 5.19734 3.94434 6.61484 3.94434 7.92734C3.94434 9.57584 4.85784 10.4053 6.43284 10.4053C7.52484 10.4053 8.66934 10.0483 9.35184 8.99834L9.33084 8.31584H9.09984Z" fill="#355148"/>
</svg>
