<svg width="16" height="16" viewBox="0 0 16 16" fill="none" xmlns="http://www.w3.org/2000/svg">
<circle cx="8" cy="8" r="8" fill="#355148"/>
<path d="M10.3998 9.50396C9.84781 10.716 9.13981 11.34 7.96381 11.34C7.61581 11.34 7.23181 11.172 7.01581 10.848C6.84781 10.62 6.69181 10.116 6.69181 9.50396C6.69181 8.06396 7.09981 6.45596 8.02381 5.25596C8.44381 4.70396 8.95981 4.41596 9.46381 4.41596C9.90781 4.41596 10.2318 4.59596 10.4478 5.02796C10.6758 5.47196 10.7118 6.27596 10.6518 6.86396H10.9998C11.2398 5.77196 11.5758 4.75196 11.8638 4.01996L11.5278 3.95996L11.0598 4.60796C10.6998 4.21196 10.0158 3.97196 9.17581 3.97196C7.85581 3.97196 6.97981 4.40396 6.39181 4.89596C5.14381 5.93996 4.50781 7.55996 4.50781 9.05996C4.50781 10.944 5.55181 11.892 7.35181 11.892C8.59981 11.892 9.90781 11.484 10.6878 10.284L10.6638 9.50396H10.3998Z" fill="#F5F3F1"/>
</svg>
