<svg width="25" height="25" viewBox="0 0 25 25" fill="none" xmlns="http://www.w3.org/2000/svg">
<path d="M25 0H0V25H25V0Z" fill="white" fill-opacity="0.01"/>
<path d="M2.08398 6.25H22.9173V10.4167L22.1889 10.8537C21.0344 11.5465 19.592 11.5465 18.4374 10.8537L17.709 10.4167L16.9806 10.8537C15.826 11.5465 14.3836 11.5465 13.229 10.8537L12.5007 10.4167L11.7723 10.8537C10.6177 11.5465 9.17529 11.5465 8.0207 10.8537L7.29232 10.4167L6.56393 10.8537C5.40935 11.5465 3.96696 11.5465 2.81239 10.8537L2.08398 10.4167V6.25Z" stroke="#3B3733"/>
<path d="M4.16602 11.459L4.16602 22.9173H20.8327V11.459" stroke="#333333"/>
<path d="M4.16602 6.15805V2.08398H20.8327V6.25065" stroke="#333333"/>
<path d="M10.6257 13.334C9.36 13.334 8.33398 14.2667 8.33398 15.4173C8.33398 17.5007 11.0423 18.8264 12.5007 20.1522C13.959 18.8264 16.6673 17.5007 16.6673 15.4173C16.6673 14.2667 15.6413 13.334 14.3757 13.334C13.6006 13.334 12.9154 13.7456 12.5007 14.281C12.0859 13.7456 11.4007 13.334 10.6257 13.334Z" fill="white" stroke="#333333"/>
</svg>
