<svg width="30" height="30" viewBox="0 0 30 30" fill="none" xmlns="http://www.w3.org/2000/svg">
<path d="M12.5 20.6249L16.25 21.8749C16.25 21.8749 25.625 19.9999 26.875 19.9999C28.125 19.9999 28.125 21.2499 26.875 22.4999C25.625 23.7499 21.25 27.4999 17.5 27.4999C13.75 27.4999 11.25 25.6249 8.75 25.6249C6.25 25.6249 2.5 25.6249 2.5 25.6249" stroke="#333333" stroke-linejoin="round" stroke-width="1"/>
<path d="M2.5 18.125C3.75 16.875 6.25 15 8.75 15C11.25 15 17.1875 17.5 18.125 18.75C19.0625 20 16.25 21.875 16.25 21.875" stroke="#333333" stroke-linejoin="round" stroke-width="1"/>
<path d="M10 11.2499V6.24988C10 5.55952 10.5596 4.99988 11.25 4.99988H26.25C26.9404 4.99988 27.5 5.55952 27.5 6.24988V16.2499" stroke="#333333" stroke-linejoin="round" stroke-width="1"/>
<path d="M21.875 4.99988H15.625V10.6249H21.875V4.99988Z" stroke="#333333" stroke-linejoin="round" stroke-width="1"/>
</svg>
