<svg width="24" height="24" viewBox="0 0 24 24" fill="none" xmlns="http://www.w3.org/2000/svg">
<g clip-path="url(#clip0_355_89)">
<path d="M21.9596 6.24951L19.7945 7.49951M2.04101 17.7495C2.04101 17.7495 2.85326 17.2806 4.20608 16.4995" stroke="#959595" stroke-width="0.7" stroke-linejoin="round"/>
<path d="M23.5 11.9995L21 11.9995M0.5 11.9995C0.5 11.9995 1.4379 11.9995 3 11.9995" stroke="#959595" stroke-width="0.7" stroke-linejoin="round"/>
<path d="M21.9596 17.7495L19.7945 16.4995M2.04102 6.24951C2.04102 6.24951 2.85326 6.71846 4.20608 7.49951" stroke="#959595" stroke-width="0.7" stroke-linejoin="round"/>
<path d="M17.75 21.9591L16.5 19.794M6.25 2.04052C6.25 2.04052 6.71895 2.85277 7.5 4.20559" stroke="#959595" stroke-width="0.7" stroke-linejoin="round"/>
<path d="M12 23.5L12 21M12 0.5C12 0.5 12 1.4379 12 3" stroke="#959595" stroke-width="0.7" stroke-linejoin="round"/>
<path d="M17.75 2.03991L16.5 4.20497M6.25 21.9585C6.25 21.9585 6.71895 21.1462 7.5 19.7934" stroke="#959595" stroke-width="0.7" stroke-linejoin="round"/>
<path d="M11.9997 7L10.4714 10.2836L7 10.8134L9.51472 13.4013L8.9136 17L11.9997 15.2682L15.0864 17L14.4896 13.4013L17 10.8134L13.5478 10.2836L11.9997 7Z" fill="#959595" stroke="#959595" stroke-width="0.7"/>
</g>
<defs>
<clipPath id="clip0_355_89">
<rect width="24" height="24" fill="white"/>
</clipPath>
</defs>
</svg>
