<svg width="68" height="36" viewBox="0 0 68 36" fill="none" xmlns="http://www.w3.org/2000/svg">
<path d="M6.13582 0.805853C6.41473 0.89882 6.72462 0.960799 6.94154 0.960799C7.20495 0.960799 9.17275 0.945304 9.3122 0.945304C9.48264 0.945304 9.63758 1.5341 9.63758 1.82849C9.63758 2.04541 9.40517 2.20036 9.37418 2.20036C8.89385 2.20036 7.96418 2.0919 7.48385 2.0764C7.73176 2.47926 7.9022 3.06805 7.9022 3.59487C7.9022 4.57102 7.56132 5.37673 6.72462 6.07399C6.05835 6.63179 4.92725 6.92618 3.99758 6.92618C3.87363 6.92618 3.54824 6.91069 3.40879 6.91069C3.23835 6.91069 3.19187 6.95717 3.08341 7.01915C2.86648 7.12761 2.58758 7.49948 2.58758 7.68542C2.58758 8.32069 3.30033 8.42915 3.40879 8.42915C4.71033 8.42915 6.27528 8.52212 6.94154 8.52212C7.3289 8.52212 7.96418 8.61509 8.61495 9.15739C9.06429 9.52926 9.46714 10.2885 9.46714 10.9857C9.46714 12.3493 8.50648 13.4959 7.57681 14.0846C6.72462 14.565 5.67099 15.0763 3.90462 15.0763C2.51011 15.0763 0 14.379 0 12.2873C0 11.9464 0.232418 11.3111 0.449341 11.1562C0.79022 10.8928 1.42549 10.4124 1.79736 10.0871C1.89033 10.0406 1.90582 9.88564 1.84385 9.87014C1.67341 9.82366 1.42549 9.74619 1.20857 9.56025C0.976154 9.35882 0.588791 8.98695 0.588791 8.10377C0.588791 8.04179 0.635275 7.90234 0.697253 7.88684C1.17758 7.66992 2.01429 7.03465 2.2467 6.78673C2.30868 6.69377 2.30868 6.61629 2.2467 6.58531C1.34802 6.0275 0.604286 5.23728 0.604286 3.88926C0.604286 2.74267 1.02264 2.02992 1.81286 1.33267C2.27769 0.960799 3.47077 0.480469 4.33846 0.480469C5.12868 0.480469 5.79495 0.697392 6.13582 0.805853ZM6.7556 13.5114C7.39088 13.1395 7.85571 12.5972 7.84022 11.714C7.82473 10.7378 7.03451 10.3195 6.27528 10.1955C5.88791 10.1181 5.19066 10.0561 4.40044 10.0561C3.33132 10.0561 2.71154 10.366 2.66506 10.3815C1.95231 10.8153 1.75088 11.2956 1.75088 11.8225C1.75088 13.3254 3.3778 13.9762 4.89626 13.9762C5.3456 13.9607 6.24429 13.8367 6.7556 13.5114ZM2.44813 3.45541C2.44813 5.36124 3.62571 6.043 4.5244 6.043C5.02022 6.043 5.51604 5.7641 5.6555 5.59366C5.81044 5.37673 6.16681 4.64849 6.16681 3.70333C6.16681 2.63421 5.60901 1.33267 4.04407 1.33267C2.95945 1.33267 2.44813 2.47926 2.44813 3.45541Z" fill="black"/>
<path d="M11.7757 1.28488C12.1166 1.08345 12.7983 0.789054 13.2477 0.541142C13.5266 0.417186 13.697 0.324219 13.883 0.324219C13.9759 0.324219 14.1464 0.556636 14.1464 0.634109C14.1619 0.943999 14.1619 1.37785 14.1928 1.70323C14.1928 1.76521 14.3478 1.85817 14.4098 1.76521C15.045 1.06796 15.9127 0.479164 16.7494 0.479164C17.3847 0.479164 17.9425 0.91301 17.9425 1.14543C17.9425 1.62576 17.3847 2.23004 17.0748 2.46246C16.9664 2.57092 16.8114 2.6329 16.7339 2.6329C16.579 2.6329 16.455 2.57092 16.2381 2.41598C16.0677 2.29202 15.7423 2.15257 15.4634 2.15257C15.076 2.15257 14.7506 2.27653 14.4717 2.64839C14.3633 2.78785 14.2548 3.05125 14.2548 3.17521C14.2548 3.39213 14.2393 6.52202 14.3013 7.28125C14.3633 8.30389 14.5337 8.52081 15.5254 8.78422C16.0212 8.90818 16.3001 9.09411 16.3001 9.28004C16.3001 9.45048 16.0212 9.65191 15.7578 9.65191C15.0915 9.65191 13.9759 9.55894 13.3406 9.55894C12.5814 9.55894 12.1941 9.62092 11.5898 9.62092C11.2024 9.62092 11.001 9.3885 11.001 9.28004C11.001 9.04763 11.2334 8.90817 11.4968 8.8307C12.349 8.52081 12.411 8.19543 12.4265 7.6996C12.473 6.72345 12.4885 4.05839 12.4885 2.89631C12.4885 2.77235 12.473 2.61741 11.9461 2.24554C11.7137 2.0751 11.4813 1.87367 11.4813 1.74971C11.4813 1.54828 11.6053 1.37785 11.7757 1.28488Z" fill="black"/>
<path d="M58.0846 0.821209C58.503 0.61978 59.0608 0.433846 59.4946 0.216923C59.758 0.0929671 60.0214 0 60.0524 0C60.1144 0 60.4243 0.0929671 60.4243 0.263407C60.4243 0.371868 60.4088 1.00714 60.3778 1.22407C60.3623 1.33253 60.4708 1.33253 60.5327 1.28604C61.199 0.836703 62.2526 0.185934 63.6161 0.185934C64.7163 0.185934 65.2895 0.728242 65.6149 1.20857C65.9558 1.7044 66.2502 2.60308 66.2657 4.09055C66.2812 5.15967 66.2812 6.36824 66.3277 7.3444C66.3432 7.97967 66.4981 8.16561 66.8855 8.36703C67.3813 8.56846 67.5363 8.78539 67.5363 8.97132C67.5363 9.18824 67.1954 9.3122 66.901 9.3122C66.6221 9.3122 65.9248 9.25022 65.2741 9.25022C64.6388 9.25022 64.1739 9.3122 63.9105 9.3122C63.6316 9.3122 63.3217 9.25022 63.3217 8.97132C63.3217 8.83187 63.4302 8.66143 63.8021 8.52198C64.3444 8.32055 64.4993 8.13462 64.5148 7.59231C64.5303 6.52319 64.5303 5.59352 64.5303 4.63286C64.5303 3.00593 64.3289 2.35517 64.112 2.07626C63.895 1.79736 63.4612 1.48747 62.5625 1.48747C61.7413 1.48747 61.106 1.6889 60.7032 1.9678C60.6567 2.01429 60.4398 2.2467 60.4398 2.51011C60.4398 2.72703 60.4398 7.05 60.4398 7.54583C60.4398 7.87121 60.4243 8.13462 61.292 8.46C61.6793 8.61495 61.8498 8.80088 61.8498 8.98682C61.8498 9.15726 61.6328 9.32769 61.2455 9.32769C60.5327 9.32769 59.882 9.26572 59.3552 9.26572C58.6889 9.26572 57.9916 9.32769 57.6353 9.32769C57.2479 9.32769 57 9.21923 57 9.00231C57 8.78539 57.2634 8.61495 57.4803 8.55297C58.441 8.24308 58.5649 7.99517 58.5804 7.51484C58.6424 6.47671 58.7044 4.84978 58.7044 2.63407C58.7044 2.29319 58.4875 2.04527 57.9452 1.71989C57.6818 1.51846 57.6353 1.44099 57.6353 1.39451C57.6973 1.22407 57.8832 0.914176 58.0846 0.821209Z" fill="black"/>
<path d="M14.751 13.6182C14.9834 13.6802 15.2468 13.7422 15.4482 13.8197C15.5567 13.8662 15.7891 14.1605 15.8201 14.2535C15.8666 14.3775 15.8666 15.2142 15.8666 15.4466C15.8666 15.6015 15.6961 16.0819 15.3862 16.0819C15.2933 16.0819 15.1073 15.8804 14.9059 15.4931C14.4256 14.5944 13.6973 14.2225 13.248 14.2225C12.7522 14.2225 11.9929 14.7029 11.9929 15.5086C11.9929 16.5777 12.9226 16.8566 14.0537 17.4454C15.1848 18.0342 16.13 18.7004 16.13 19.9865C16.13 21.226 15.3242 22.0008 14.503 22.3726C13.8678 22.6825 13.186 22.791 12.6437 22.791C11.3267 22.791 10.6604 22.4811 10.428 22.2487C10.2111 22.0318 9.99414 21.0711 9.99414 20.6837C9.99414 20.1259 10.1491 19.971 10.3815 19.971C10.5055 19.971 10.6604 20.1259 10.9393 20.5598C11.5746 21.5359 12.3338 21.9543 12.9071 21.9543C13.8833 21.9543 14.4256 21.3035 14.4256 20.6063C14.4256 20.1879 14.1932 19.7386 13.6508 19.3977C13.093 19.0568 12.5817 18.8089 11.931 18.437C11.2182 18.0187 10.366 17.3524 10.366 16.0664C10.366 15.0282 10.9548 14.4085 11.4661 14.0211C11.9619 13.6957 12.8761 13.4633 13.3564 13.4633C13.9452 13.4478 14.4411 13.5098 14.751 13.6182Z" fill="black"/>
<path d="M25.4107 13.6831C25.6277 13.745 25.7361 13.807 25.9066 13.807C25.9995 13.807 26.17 13.8225 26.4334 13.5436C26.6503 13.3112 26.8827 13.1562 27.0687 13.1562C27.2236 13.1562 27.2701 13.3112 27.2701 13.7141C27.2701 14.4888 27.1616 15.6199 27.1616 20.9655C27.1616 22.9643 27.1771 32.3849 27.2081 33.0977C27.2236 34.0893 27.3785 34.3372 28.2307 34.5077C28.4942 34.5697 28.7111 34.7246 28.7111 34.895C28.7111 35.1275 28.4322 35.3289 27.9363 35.3289C25.7826 35.3289 24.7755 35.5458 24.2022 35.5458C23.7063 35.5458 23.5514 35.3444 23.5514 35.2824C23.5514 35.019 23.7218 34.8486 24.0782 34.7246C25.0699 34.3837 25.2093 34.1358 25.2868 33.547C25.3488 32.9582 25.4572 23.832 25.4572 22.1586C25.4572 22.0501 25.3488 21.9881 25.2558 22.0346C24.4811 22.5149 23.6754 22.7783 22.7767 22.7783C21.5371 22.7783 20.344 22.236 19.6313 21.4768C18.9185 20.7176 18.4072 19.5245 18.4072 18.3779C18.4072 16.9059 19.1045 15.2325 21.0723 14.1634C21.816 13.776 22.8232 13.4661 23.8768 13.4661C24.5276 13.4661 25.2248 13.6211 25.4107 13.6831ZM21.4442 14.9846C20.9793 15.4804 20.4215 16.5495 20.4215 17.8511C20.4215 18.9202 20.8089 19.9583 21.4442 20.6091C22.1569 21.3528 23.0556 21.5853 23.6754 21.5853C24.7135 21.5853 24.8684 21.3838 25.1009 21.2134C25.2713 21.0894 25.4262 20.6711 25.4262 20.4542C25.4262 19.1681 25.4417 17.5412 25.3333 16.6115C25.2713 15.8988 25.2093 15.7903 24.8994 15.403C24.3571 14.7057 23.4894 14.4888 22.5288 14.4888C22.3118 14.4888 21.754 14.6902 21.4442 14.9846Z" fill="black"/>
<path d="M35.9318 20.9191C36.0248 20.8572 36.4587 20.5008 36.5206 19.8965C36.6136 19.1838 36.6136 16.5342 36.6136 15.4961C36.6136 15.2636 36.4432 14.8608 36.2882 14.8298C36.0713 14.7368 35.8389 14.6284 35.5755 14.5509C35.2656 14.4424 35.0487 14.272 35.0487 14.0706C35.0487 13.9466 35.3121 13.7297 35.591 13.7297C36.4432 13.7297 37.2799 13.6832 38.1785 13.6677C38.2715 13.6677 38.411 13.9466 38.411 14.1945C38.411 15.1242 38.3955 19.788 38.4265 20.7487C38.442 21.5079 38.7364 21.5699 38.7673 21.5699C38.9223 21.5699 39.6505 21.4614 39.8674 21.446C39.9139 21.446 40.0379 21.7249 40.0379 21.8178C40.0379 22.1897 39.8055 22.3756 39.666 22.4066C39.1237 22.4686 38.2715 22.608 37.8842 22.7165C37.5433 22.8095 37.1404 22.8714 36.9545 22.8714C36.8615 22.8714 36.7376 22.6545 36.7221 22.4996C36.7066 22.3446 36.6756 21.7868 36.6601 21.5079C36.6601 21.4924 36.5516 21.353 36.4587 21.415C35.4205 22.1742 34.4134 22.825 33.0654 22.825C32.3681 22.825 31.6554 22.4376 31.3455 22.0812C31.1286 21.8643 30.8497 21.3375 30.8497 20.8262C30.8497 20.3303 30.8497 17.154 30.8497 15.5735C30.8497 15.3721 30.6482 14.9383 30.0284 14.6129C29.796 14.4889 29.5791 14.334 29.5791 14.117C29.5791 13.8072 30.1679 13.7452 30.2454 13.7452C30.7257 13.7452 32.2442 13.6367 32.3991 13.6367C32.554 13.6367 32.616 13.8691 32.616 14.334C32.616 15.2636 32.616 17.9597 32.6315 19.4781C32.647 20.6557 32.8639 20.9036 33.1738 21.1516C33.4992 21.384 34.0415 21.4305 34.3204 21.4305C35.0022 21.384 35.7149 21.0586 35.9318 20.9191Z" fill="black"/>
<path d="M47.801 14.2713C48.2348 14.6586 48.5447 15.6813 48.5447 16.1461C48.5447 16.9673 48.4518 17.8815 48.4518 20.3141C48.4518 21.0269 48.8236 21.3833 49.2265 21.3833C49.3969 21.3833 49.7843 21.2748 49.9702 21.1818C50.0632 21.1353 50.1717 21.3523 50.1717 21.5227C50.1717 21.6157 50.0167 22.0185 49.9702 22.0805C49.6448 22.5144 49.118 22.8552 48.3898 22.8552C47.832 22.8552 47.1347 22.6383 46.8403 21.5072C46.8403 21.4917 46.6699 21.3833 46.6234 21.3988C46.1741 21.7396 45.4458 22.158 44.95 22.4369C44.5626 22.6538 44.1908 22.7623 43.8034 22.7623C43.1526 22.7623 41.7426 21.9566 41.7426 20.2057C41.7426 19.6789 41.9131 19.3535 42.068 19.1675C42.3934 18.7492 42.8428 18.5633 42.9357 18.5323C45.1359 18.0055 46.1431 17.7575 46.6234 17.4941C46.7319 17.4477 46.8558 17.2927 46.8558 17.1688C46.8558 16.7194 46.8558 16.611 46.8558 16.3475C46.8558 16.1151 46.8558 15.9757 46.7939 15.7897C46.484 14.9375 45.5543 14.5812 44.888 14.5812C44.4387 14.5812 44.0048 14.7826 43.9119 14.8601C43.8189 14.9685 43.7414 15.2784 43.695 15.9292C43.6795 16.1616 43.5865 16.3475 43.4935 16.4095C43.3851 16.5025 42.9977 16.58 42.8582 16.58C42.6878 16.58 42.1455 16.5645 41.9441 16.4715C41.8356 16.425 41.6807 16.2081 41.6807 16.1306C41.6807 15.7588 42.3159 15.0925 43.2456 14.4417C44.0668 13.8994 45.074 13.4656 45.8022 13.4656C46.6389 13.4501 47.1812 13.6825 47.801 14.2713ZM46.6079 20.593C46.6699 20.4381 46.7629 20.2057 46.7784 19.9423L46.7939 18.5478C46.7939 18.4548 46.6854 18.4238 46.6234 18.4238C45.9881 18.5323 44.7331 18.8422 44.2992 18.9816C43.695 19.1985 43.4935 19.431 43.4935 19.9733C43.4935 20.6705 44.1443 21.3213 44.95 21.3213C45.4458 21.3213 46.1276 21.0424 46.6079 20.593Z" fill="black"/>
<path d="M52.3403 14.2536C52.6812 14.0522 53.3629 13.7578 53.8123 13.5099C54.0912 13.3859 54.2616 13.293 54.4475 13.293C54.5405 13.293 54.7109 13.5254 54.7109 13.6029C54.7264 13.9127 54.7264 14.3466 54.7574 14.672C54.7574 14.734 54.9124 14.8269 54.9743 14.734C55.6096 14.0367 56.4773 13.4479 57.314 13.4479C57.9493 13.4479 58.5071 13.8818 58.5071 14.1142C58.5071 14.5945 57.9493 15.1988 57.6394 15.4312C57.5309 15.5397 57.376 15.6016 57.2985 15.6016C57.1436 15.6016 57.0196 15.5397 56.8027 15.3847C56.6323 15.2608 56.3069 15.1213 56.028 15.1213C55.6406 15.1213 55.3152 15.2453 55.0363 15.6171C54.9434 15.7256 54.8349 15.989 54.8349 16.113C54.8349 16.3299 54.8194 19.4598 54.8814 20.219C54.9434 21.2416 55.1138 21.4586 56.1054 21.722C56.6013 21.8459 56.8802 22.0319 56.8802 22.2178C56.8802 22.3882 56.6013 22.5897 56.3379 22.5897C55.6716 22.5897 54.556 22.4967 53.9207 22.4967C53.1615 22.4967 52.7741 22.5587 52.1698 22.5587C51.7825 22.5587 51.5811 22.3263 51.5811 22.2178C51.5811 21.9854 51.8135 21.8459 52.0769 21.7685C52.9291 21.4586 52.9911 21.1332 53.0065 20.6374C53.053 19.6612 53.0685 16.9962 53.0685 15.8341C53.0685 15.7101 53.053 15.5552 52.5262 15.1833C52.2938 15.0129 52.0459 14.8114 52.0459 14.6875C52.0304 14.5015 52.1543 14.3311 52.3403 14.2536Z" fill="black"/>
<path d="M67.2461 14.7505C67.525 15.1688 67.618 15.7267 67.618 16.269C67.618 16.5014 67.2461 16.9197 67.0292 16.9197C66.8742 16.9197 62.7527 16.9817 62.3653 16.9817C62.3034 16.9817 62.0554 17.1057 62.0244 17.2141C61.9315 17.3691 61.916 17.7564 61.916 17.8804C61.916 19.8172 63.3725 21.2892 65.2318 21.2892C66.084 21.2892 67.0137 20.7469 67.432 20.468C67.525 20.406 67.6954 20.5145 67.6954 20.7469C67.6954 20.9793 67.587 21.2272 67.4165 21.4131C66.6108 22.2653 65.4642 22.7612 64.3176 22.7612C61.6061 22.7612 60.0566 20.9173 60.0566 18.2678C60.0566 16.5169 60.8624 15.0139 62.1639 14.1617C62.8766 13.6814 63.7908 13.418 64.705 13.418C65.7276 13.449 66.7193 13.8983 67.2461 14.7505ZM62.1639 15.9901C62.1484 16.083 62.2569 16.207 62.2879 16.207C62.5203 16.2225 63.2485 16.2535 63.8683 16.2535C64.6895 16.2535 65.6967 16.207 65.6967 15.4787C65.6967 14.828 65.1698 14.2392 64.0232 14.2392C63.4809 14.2237 62.4428 14.9054 62.1639 15.9901Z" fill="black"/>
<path d="M19.6934 9.66857H54.8349V0H19.6934V9.66857ZM52.6347 0.883187V8.78539H21.8936V0.883187H52.6347Z" fill="black"/>
</svg>
