<svg xmlns="http://www.w3.org/2000/svg" xmlns:xlink="http://www.w3.org/1999/xlink" width="168" height="51" viewBox="0 0 168 51">
    <defs>
        <path id="e293czi4ha" d="M0.375 0.632L14.691 0.632 14.691 22.222 0.375 22.222z"/>
        <path id="0o7od6ez5c" d="M0.732 0.363L15.986 0.363 15.986 13.675 0.732 13.675z"/>
    </defs>
    <g fill="none" fill-rule="evenodd">
        <g>
            <g>
                <path fill="#000000" d="M10.7 29.675c.096.063.285.515.285.774 0 .902-.572 1.68-1.012 1.68-.16 0-.634-.26-1.078-.743-.823-.872-1.836-1.196-3.008-1.196-.854 0-1.518.387-2.121 1.065-.728.84-1.075 2.165-1.075 3.812 0 3.456 2.5 5.2 4.684 5.2 1.204 0 2.089-.354 3.167-1.356.19-.163.57.031.57.29 0 .322-.065.743-.412 1.227-1.012 1.455-2.882 2.165-4.654 2.165-1.552 0-3.039-.55-4.242-1.681C.95 40.138 0 38.264 0 36.132c0-2.907 1.424-5.005 3.228-6.135 1.552-1.003 2.882-1.293 4.211-1.293 2.12 0 3.008.68 3.261.97M18.283 30.965c-.32.356-1.316 1.81-1.316 4.264 0 1.808.611 4.038 1.926 5.168.32.259 1.25.871 2.437.871.77 0 1.796-.452 2.438-1.259.673-.874.867-2.456.867-4.327 0-2.747-1.444-5.62-4.17-5.62-.706 0-1.733.418-2.182.903m9.495 4.49c0 2.453-.993 4.198-2.084 5.2-1.155 1.066-2.726 1.938-4.844 1.938-1.891 0-3.72-.776-5.068-2.1-1.379-1.358-1.893-3.327-1.893-4.78 0-2.26 1.156-4.23 2.567-5.36 1.058-.906 2.822-1.65 4.49-1.65 4.425 0 6.8 3.781 6.832 6.752M35.97 30.978c-.865.763-1.507 2.164-1.507 4.135 0 2.452 1.572 5.381 4.423 5.381.963 0 2.212-.51 2.501-.798.095-.063.32-.572.32-.796.032-2.067 0-3.912 0-5.98 0-.256-.128-1.083-.256-1.243-.32-.477-1.345-1.59-3.301-1.59-.77 0-1.539.32-2.18.891m5.481-2.1c.128.03.257-.16.257-.35 0-.192-.064-24.52-.064-25.187-.096-1.05-.224-1.144-1.634-1.495-.322-.096-.61-.382-.61-.668 0-.096.127-.255.672-.414C40.811.54 43.727 0 44.015 0c.322 0 .417.476.417 1.94 0 2.007-.126 26.812-.126 29.387 0 6.398.095 6.936.126 7.86.032 1.018.32 1.273.577 1.273.288 0 1.315-.095 1.763-.191.193-.031.45.191.45.542 0 .255-.353.763-.707.859-2.209.476-3.589.923-4.069.923-.16 0-.545-.192-.579-.413-.063-.351-.063-.988-.096-1.305 0-.064-.158-.129-.255-.064-1.475.827-2.885 1.59-3.944 1.59-3.62 0-6.09-2.64-6.09-6.236 0-3.436 1.987-5.156 3.557-6.173 1.349-.859 3.335-1.274 4.457-1.274.899 0 1.572.065 1.955.16M52.166 32.484c-.031.13.127.322.19.322.346.032 1.39.066 2.305.066 1.2 0 2.65-.066 2.65-1.164 0-.969-.757-1.84-2.429-1.84-.79 0-2.304 1-2.716 2.616m7.387-1.84c.41.61.538 1.451.538 2.26 0 .354-.538.968-.854.968-.22 0-6.217.096-6.785.096-.095 0-.443.195-.506.356-.126.228-.16.808-.16 1.003 0 2.873 2.116 5.07 4.832 5.07 1.23 0 2.588-.807 3.188-1.226.126-.098.38.063.38.419 0 .355-.159.71-.412 1.001-1.166 1.26-2.84 2.002-4.514 2.002-3.946 0-6.186-2.744-6.186-6.685 0-2.617 1.166-4.847 3.06-6.106 1.042-.71 2.37-1.098 3.695-1.098 1.515 0 2.968.68 3.724 1.94" transform="translate(-360 -25) translate(360 25)"/>
                <g transform="translate(-360 -25) translate(360 25) translate(68.519 27.778)">
                    <mask id="qnn26zc63b" fill="#fff">
                        <use xlink:href="#e293czi4ha"/>
                    </mask>
                    <path fill="#000000" d="M4.019 5.033c0 2.829 1.742 3.823 3.094 3.823.743 0 1.484-.417 1.678-.674.227-.32.741-1.382.741-2.795 0-1.575-.838-3.502-3.16-3.502-1.612 0-2.353 1.703-2.353 3.148m6.383 14.877c.935-.546 1.646-1.35 1.615-2.668-.034-1.444-1.194-2.055-2.322-2.248-.58-.097-1.612-.192-2.774-.192-1.58 0-2.515.45-2.578.48-1.066.644-1.356 1.352-1.356 2.122 0 2.216 2.419 3.18 4.676 3.18.644 0 1.998-.192 2.739-.674M9.5 1.113c.418.13.87.226 1.19.226.39 0 3.323-.032 3.516-.032.259 0 .484.867.484 1.318 0 .32-.355.544-.387.544-.71 0-2.095-.158-2.804-.192.354.611.612 1.478.612 2.248 0 1.447-.516 2.637-1.742 3.665-1 .836-2.676 1.284-4.06 1.284-.194 0-.679-.031-.873-.031-.256 0-.321.064-.483.16-.321.161-.742.706-.742.995 0 .932 1.065 1.093 1.225 1.093 1.935 0 4.258.13 5.255.13.582 0 1.517.128 2.484.929.677.548 1.257 1.672 1.257 2.7 0 2.025-1.418 3.727-2.806 4.597-1.257.736-2.836 1.475-5.449 1.475-2.063 0-5.803-1.028-5.803-4.112 0-.514.356-1.446.68-1.67.514-.386 1.449-1.092 1.997-1.574.129-.064.162-.29.066-.322-.26-.065-.614-.193-.935-.45-.356-.32-.936-.868-.936-2.184 0-.097.063-.289.16-.32.71-.323 1.967-1.255 2.29-1.64.098-.128.098-.258 0-.29C2.376 8.825 1.28 7.67 1.28 5.676c0-1.703.614-2.762 1.805-3.79.678-.547 2.45-1.254 3.74-1.254 1.162 0 2.16.323 2.677.48" mask="url(#qnn26zc63b)"/>
                </g>
                <path fill="#000000" d="M86.333 29.203c.507-.291 1.495-.744 2.164-1.101.413-.195.668-.324.923-.324.125 0 .38.357.38.454.032.453.032 1.1.065 1.587 0 .098.222.226.318.098.923-1.037 2.196-1.913 3.437-1.913.923 0 1.75.648 1.75 1.005 0 .713-.827 1.618-1.273 1.975-.158.162-.382.26-.509.26-.221 0-.414-.098-.731-.326-.255-.194-.733-.389-1.145-.389-.575 0-1.052.195-1.465.746-.127.162-.286.55-.286.744 0 .323-.034 4.987.062 6.12.097 1.52.35 1.847 1.784 2.234.732.194 1.144.452 1.144.746 0 .257-.412.548-.794.548-.986 0-2.612-.13-3.535-.13-1.114 0-1.686.098-2.576.098-.575 0-.86-.357-.86-.516 0-.357.35-.552.73-.683 1.244-.45 1.34-.939 1.371-1.683.063-1.456.096-5.438.096-7.155 0-.195-.033-.42-.798-.971-.348-.26-.698-.55-.698-.744 0-.293.19-.55.446-.68" transform="translate(-360 -25) translate(360 25)"/>
                <g transform="translate(-360 -25) translate(360 25) translate(150.926 27.778)">
                    <mask id="r23ar2oj6d" fill="#fff">
                        <use xlink:href="#0o7od6ez5c"/>
                    </mask>
                    <path fill="#000000" d="M2.246 1.543c.598-.28 1.417-.56 2.048-.87.378-.186.756-.31.82-.31.094 0 .535.124.535.373 0 .153-.032 1.053-.064 1.365-.03.155.126.155.223.093C6.784 1.543 8.296.61 10.28.61c1.608 0 2.427.776 2.899 1.46.504.713.914 1.984.945 4.127.033 1.521.033 3.257.094 4.655.034.9.253 1.18.82 1.458.724.28.947.589.947.87 0 .31-.505.495-.914.495-.411 0-1.42-.092-2.364-.092-.914 0-1.608.092-1.986.092-.409 0-.85-.092-.85-.495 0-.188.158-.434.692-.652.789-.28 1.008-.56 1.041-1.334.031-1.521.031-2.856.031-4.22 0-2.33-.283-3.26-.597-3.664-.317-.402-.948-.837-2.239-.837-1.198 0-2.111.28-2.709.68-.064.064-.38.406-.38.779v7.2c0 .465-.031.836 1.23 1.302.567.219.82.498.82.746s-.317.495-.884.495c-1.038 0-1.983-.092-2.74-.092-.976 0-1.985.092-2.49.092-.567 0-.915-.155-.915-.464 0-.312.379-.558.695-.652 1.386-.434 1.575-.807 1.607-1.49.093-1.488.188-3.817.188-6.982 0-.498-.314-.837-1.103-1.304-.378-.28-.442-.403-.442-.466 0-.216.286-.65.57-.774" mask="url(#r23ar2oj6d)"/>
                </g>
                <path fill="#000000" d="M145.891 29.042v11.366h-44.565V29.043h44.565zM98.148 41.667h50.926v-13.89H98.148v13.89z" transform="translate(-360 -25) translate(360 25)"/>
            </g>
        </g>
    </g>
</svg>
