<svg width="143" height="25" viewBox="0 0 143 25" fill="none" xmlns="http://www.w3.org/2000/svg">
<path d="M85.6352 0.721259C85.887 0.788411 86.1724 0.855563 86.3906 0.939503C86.5081 0.989867 86.76 1.30884 86.7935 1.40957C86.8439 1.54387 86.8439 2.45042 86.8439 2.70224C86.8439 2.87012 86.6592 3.39055 86.3235 3.39055C86.2227 3.39055 86.0213 3.17231 85.803 2.75261C85.2826 1.79569 84.5104 1.39278 84.0235 1.39278C83.4863 1.39278 82.6637 1.91321 82.6637 2.78618C82.6637 3.94456 83.671 4.24674 84.8965 4.88469C86.122 5.52263 87.1461 6.24452 87.1461 7.63792C87.1461 8.98096 86.2731 9.82036 85.3833 10.2233C84.695 10.559 83.9564 10.6766 83.3688 10.6766C81.9418 10.6766 81.2199 10.3408 80.9681 10.089C80.7331 9.85394 80.498 8.81308 80.498 8.39338C80.498 7.78901 80.6659 7.62113 80.9177 7.62113C81.052 7.62113 81.2199 7.78901 81.5221 8.25908C82.2104 9.31672 83.033 9.77 83.6542 9.77C84.7118 9.77 85.2994 9.0649 85.2994 8.30944C85.2994 7.85616 85.0476 7.36931 84.46 6.99998C83.8556 6.63064 83.3016 6.36203 82.5965 5.95912C81.8243 5.50584 80.901 4.78396 80.901 3.39055C80.901 2.26576 81.5389 1.59423 82.0929 1.17453C82.6301 0.821986 83.6206 0.570167 84.141 0.570167C84.7622 0.53659 85.2994 0.603743 85.6352 0.721259Z" fill="#355148"/>
<path d="M97.2015 0.788566C97.4365 0.855718 97.554 0.92287 97.7387 0.92287C97.8394 0.92287 98.0241 0.939658 98.3095 0.637474C98.5445 0.385653 98.7963 0.217773 98.9978 0.217773C99.1657 0.217773 99.216 0.385653 99.216 0.822141C99.216 1.66154 99.0985 2.88707 99.0985 8.67893C99.0985 10.8446 99.1153 21.1021 99.1489 21.8743C99.1657 22.9487 99.3335 23.2173 100.257 23.402C100.542 23.4692 100.777 23.637 100.777 23.8217C100.777 24.0735 100.475 24.2918 99.9379 24.2918C97.6044 24.2918 96.5132 24.5268 95.892 24.5268C95.3548 24.5268 95.1869 24.3086 95.1869 24.2414C95.1869 23.956 95.3716 23.7713 95.7577 23.637C96.8321 23.2677 96.9832 22.9991 97.0672 22.3612C97.1343 21.7232 97.2518 11.7679 97.2518 9.95482C97.2518 9.8373 97.1343 9.77015 97.0336 9.82051C96.1942 10.3409 95.3212 10.6263 94.3475 10.6263C93.0045 10.6263 91.7118 10.0388 90.9395 9.21614C90.1673 8.39353 89.6133 7.10086 89.6133 5.85854C89.6133 4.26368 90.3687 2.45058 92.5008 1.29221C93.3066 0.872506 94.3979 0.536745 95.5395 0.536745C96.2278 0.553533 96.9832 0.721414 97.2015 0.788566ZM92.9037 2.19876C92.4169 2.73598 91.7957 3.89435 91.7957 5.30454C91.7957 6.46291 92.2154 7.58771 92.9037 8.2928C93.676 9.09863 94.6497 9.35045 95.3212 9.35045C96.446 9.35045 96.6139 9.13221 96.8657 8.94754C97.0504 8.81323 97.2183 8.35996 97.2183 8.12492C97.2183 6.73152 97.235 4.96878 97.1175 3.9615C97.0504 3.18925 96.9832 3.07173 96.6475 2.65203C96.0599 1.89657 95.1197 1.66154 94.0789 1.66154C93.8439 1.66154 93.2227 1.87979 92.9037 2.19876Z" fill="#355148"/>
<path d="M108.602 8.62865C108.703 8.56149 109.173 8.17537 109.24 7.52064C109.34 6.74839 109.34 3.87764 109.34 2.75284C109.34 2.50102 109.156 2.06453 108.988 2.03096C108.753 1.93023 108.501 1.81271 108.216 1.72877C107.88 1.61126 107.645 1.42659 107.645 1.20835C107.645 1.07404 107.93 0.83901 108.232 0.83901C109.156 0.83901 110.062 0.788646 111.036 0.771858C111.137 0.771858 111.288 1.07404 111.288 1.34265C111.288 2.34993 111.271 7.40312 111.305 8.44398C111.321 9.26659 111.64 9.33374 111.674 9.33374C111.842 9.33374 112.631 9.21623 112.866 9.19944C112.916 9.19944 113.051 9.50162 113.051 9.60235C113.051 10.0053 112.799 10.2067 112.648 10.2403C112.06 10.3074 111.137 10.4585 110.717 10.5761C110.348 10.6768 109.911 10.7439 109.71 10.7439C109.609 10.7439 109.475 10.5089 109.458 10.341C109.441 10.1731 109.408 9.56878 109.391 9.26659C109.391 9.2498 109.273 9.09871 109.173 9.16586C108.048 9.98847 106.957 10.6936 105.496 10.6936C104.741 10.6936 103.968 10.2739 103.633 9.88775C103.398 9.65272 103.095 9.08192 103.095 8.52792C103.095 7.9907 103.095 4.54916 103.095 2.83678C103.095 2.61854 102.877 2.14847 102.206 1.79593C101.954 1.66162 101.719 1.49374 101.719 1.25871C101.719 0.92295 102.357 0.855798 102.441 0.855798C102.961 0.855798 104.606 0.738281 104.774 0.738281C104.942 0.738281 105.009 0.990103 105.009 1.49374C105.009 2.50102 105.009 5.42214 105.026 7.06736C105.043 8.34325 105.278 8.61186 105.614 8.88047C105.966 9.13229 106.554 9.18265 106.856 9.18265C107.595 9.13229 108.367 8.77974 108.602 8.62865Z" fill="#355148"/>
<path d="M121.461 1.42649C121.931 1.84619 122.267 2.9542 122.267 3.45784C122.267 4.34761 122.166 5.3381 122.166 7.97381C122.166 8.74606 122.569 9.13219 123.006 9.13219C123.191 9.13219 123.61 9.01467 123.812 8.91394C123.912 8.86358 124.03 9.09861 124.03 9.28328C124.03 9.38401 123.862 9.8205 123.812 9.88765C123.459 10.3577 122.888 10.727 122.099 10.727C121.495 10.727 120.739 10.492 120.42 9.26649C120.42 9.2497 120.236 9.13219 120.185 9.14898C119.699 9.51831 118.91 9.97159 118.372 10.2738C117.953 10.5088 117.55 10.6263 117.13 10.6263C116.425 10.6263 114.897 9.75334 114.897 7.8563C114.897 7.28551 115.082 6.93296 115.25 6.7315C115.602 6.27823 116.089 6.07677 116.19 6.0432C118.574 5.4724 119.665 5.20379 120.185 4.9184C120.303 4.86803 120.437 4.70015 120.437 4.56585C120.437 4.079 120.437 3.96148 120.437 3.67609C120.437 3.42427 120.437 3.27317 120.37 3.07172C120.034 2.14838 119.027 1.76225 118.305 1.76225C117.818 1.76225 117.348 1.9805 117.248 2.06444C117.147 2.18195 117.063 2.51771 117.013 3.22281C116.996 3.47463 116.895 3.67609 116.794 3.74324C116.677 3.84397 116.257 3.92791 116.106 3.92791C115.921 3.92791 115.334 3.91112 115.115 3.81039C114.998 3.76003 114.83 3.52499 114.83 3.44105C114.83 3.03814 115.518 2.31626 116.526 1.61116C117.415 1.02358 118.507 0.553518 119.296 0.553518C120.185 0.53673 120.773 0.788551 121.461 1.42649ZM120.169 8.276C120.236 8.10812 120.337 7.8563 120.353 7.5709L120.37 6.05998C120.37 5.95925 120.253 5.92568 120.185 5.92568C119.497 6.04319 118.137 6.37896 117.667 6.53005C117.013 6.76508 116.794 7.0169 116.794 7.60448C116.794 8.35994 117.499 9.06503 118.372 9.06503C118.893 9.06503 119.648 8.76285 120.169 8.276Z" fill="#355148"/>
<path d="M126.364 1.41C126.733 1.19175 127.472 0.87278 127.959 0.604172C128.261 0.469868 128.445 0.369141 128.647 0.369141C128.748 0.369141 128.932 0.62096 128.932 0.7049C128.949 1.04066 128.949 1.51072 128.983 1.86327C128.983 1.93042 129.15 2.03115 129.218 1.93042C129.906 1.17496 130.846 0.53702 131.753 0.53702C132.441 0.53702 133.045 1.00708 133.045 1.2589C133.045 1.77933 132.441 2.43407 132.105 2.68589C131.988 2.8034 131.82 2.87055 131.736 2.87055C131.568 2.87055 131.434 2.8034 131.199 2.63552C131.014 2.50122 130.661 2.35012 130.359 2.35012C129.94 2.35012 129.587 2.48443 129.285 2.88734C129.184 3.00486 129.067 3.29025 129.067 3.42456C129.067 3.65959 129.05 7.05077 129.117 7.87338C129.184 8.98139 129.369 9.21642 130.443 9.50181C130.98 9.63612 131.283 9.83757 131.283 10.039C131.283 10.2237 130.98 10.4419 130.695 10.4419C129.973 10.4419 128.764 10.3412 128.076 10.3412C127.253 10.3412 126.834 10.4084 126.179 10.4084C125.759 10.4084 125.541 10.1565 125.541 10.039C125.541 9.78721 125.793 9.63612 126.078 9.55218C127.002 9.21642 127.069 8.86387 127.086 8.32665C127.136 7.26901 127.153 4.38147 127.153 3.12237C127.153 2.98807 127.136 2.82019 126.565 2.41728C126.313 2.23261 126.045 2.01436 126.045 1.88006C126.028 1.6786 126.179 1.49394 126.364 1.41Z" fill="#355148"/>
<path d="M142.512 1.9467C142.814 2.39997 142.915 3.00434 142.915 3.59192C142.915 3.84374 142.512 4.29702 142.277 4.29702C142.109 4.29702 137.644 4.36417 137.224 4.36417C137.157 4.36417 136.888 4.49848 136.855 4.61599C136.754 4.78387 136.737 5.20357 136.737 5.33788C136.737 7.43638 138.315 9.03124 140.33 9.03124C141.253 9.03124 142.26 8.44366 142.714 8.14147C142.814 8.07432 142.999 8.19184 142.999 8.44366C142.999 8.69548 142.882 8.96409 142.697 9.16554C141.824 10.0889 140.582 10.6261 139.339 10.6261C136.401 10.6261 134.723 8.62833 134.723 5.75758C134.723 3.86053 135.596 2.23209 137.006 1.30875C137.778 0.788325 138.769 0.50293 139.759 0.50293C140.867 0.536506 141.941 1.02336 142.512 1.9467ZM137.006 3.28974C136.989 3.39047 137.107 3.52477 137.157 3.52477C137.409 3.54156 138.198 3.57514 138.869 3.57514C139.759 3.57514 140.85 3.52477 140.85 2.73573C140.85 2.03064 140.279 1.39269 139.037 1.39269C138.45 1.37591 137.325 2.11458 137.006 3.28974Z" fill="#355148"/>
<path d="M6.64805 0.889348C6.95023 0.990076 7.28599 1.05723 7.52102 1.05723C7.80642 1.05723 9.9385 1.04044 10.0896 1.04044C10.2743 1.04044 10.4421 1.67838 10.4421 1.99736C10.4421 2.23239 10.1903 2.40027 10.1567 2.40027C9.63631 2.40027 8.62904 2.28275 8.10861 2.26597C8.36043 2.71924 8.56188 3.3404 8.56188 3.91119C8.56188 4.96883 8.19254 5.84181 7.28599 6.59727C6.56411 7.20164 5.33859 7.5374 4.33131 7.5374C4.197 7.5374 3.84445 7.52061 3.69336 7.52061C3.50869 7.52061 3.45833 7.57097 3.34082 7.63813C3.10578 7.75564 2.8036 8.15855 2.8036 8.36001C2.8036 9.04832 3.57585 9.16584 3.69336 9.16584C5.10355 9.16584 6.79914 9.26656 7.52102 9.26656C7.94072 9.26656 8.62904 9.36729 9.33413 9.95487C9.82098 10.3578 10.2575 11.1804 10.2575 11.9359C10.2575 13.4132 9.21661 14.6555 8.20933 15.2935C7.28599 15.8307 6.14441 16.3679 4.23058 16.3679C2.71966 16.3679 0 15.6124 0 13.3628C0 12.9935 0.251822 12.3052 0.486854 12.1373C0.85619 11.8519 1.5445 11.3315 1.94741 10.9789C2.04814 10.9286 2.06493 10.7607 1.99778 10.7439C1.81311 10.6935 1.5445 10.6096 1.30947 10.4081C1.05765 10.1731 0.621157 9.7702 0.621157 8.81329C0.621157 8.74613 0.671521 8.59504 0.738673 8.57825C1.2591 8.34322 2.16566 7.65491 2.41748 7.38631C2.48463 7.28558 2.48463 7.20164 2.41748 7.16806C1.46056 6.56369 0.654734 5.70751 0.654734 4.24695C0.654734 3.00464 1.10801 2.23239 1.9642 1.47693C2.45105 1.07402 3.74373 0.553588 4.68385 0.553588C5.54004 0.5368 6.26192 0.771832 6.64805 0.889348ZM7.30278 14.6387C7.99109 14.2358 8.49473 13.6482 8.47794 12.6913C8.46115 11.6337 7.60497 11.1804 6.78235 11.0461C6.36265 10.9789 5.60719 10.9118 4.76779 10.9118C3.60942 10.9118 2.9379 11.2475 2.88754 11.2643C2.11529 11.7344 1.89705 12.2548 1.89705 12.8088C1.89705 14.4373 3.65978 15.1424 5.30501 15.1424C5.77507 15.1424 6.76557 14.9913 7.30278 14.6387ZM2.65251 3.7601C2.65251 5.82502 3.9284 6.56369 4.9021 6.56369C5.43932 6.56369 5.97653 6.26151 6.12762 6.07684C6.2955 5.84181 6.66484 5.06956 6.66484 4.0287C6.66484 2.87033 6.06047 1.46014 4.36488 1.46014C3.18972 1.44335 2.65251 2.70245 2.65251 3.7601Z" fill="#355148"/>
<path d="M62.6185 1.2423C63.0718 1.02406 63.6762 0.822604 64.1462 0.587572C64.4316 0.453268 64.717 0.352539 64.7506 0.352539C64.8177 0.352539 65.1535 0.453267 65.1535 0.637935C65.1535 0.755451 65.1367 1.44376 65.1031 1.67879C65.0863 1.79631 65.2039 1.79631 65.271 1.74594C65.9929 1.25909 67.1345 0.553995 68.6118 0.553995C69.8038 0.553995 70.4249 1.14157 70.7775 1.662C71.1468 2.19922 71.4658 3.17292 71.4826 4.78457C71.4994 5.94295 71.4994 7.25241 71.5497 8.31005C71.5665 8.99836 71.7344 9.19982 72.1541 9.41806C72.6913 9.63631 72.8592 9.87134 72.8592 10.0728C72.8592 10.3078 72.4898 10.4421 72.1709 10.4421C71.8687 10.4421 71.1132 10.375 70.4081 10.375C69.7198 10.375 69.2162 10.4421 68.9308 10.4421C68.6286 10.4421 68.2929 10.375 68.2929 10.0728C68.2929 9.9217 68.4104 9.73704 68.8133 9.58594C69.4009 9.3677 69.5687 9.16624 69.5855 8.57866C69.6023 7.42029 69.6023 6.41301 69.6023 5.37215C69.6023 3.60941 69.3841 2.90432 69.149 2.60213C68.914 2.29995 68.4439 1.96419 67.4702 1.96419C66.5805 1.96419 65.8922 2.18243 65.4557 2.48462C65.4053 2.53498 65.1703 2.7868 65.1703 3.0722C65.1703 3.30723 65.1703 7.99108 65.1703 8.5283C65.1703 8.88085 65.1535 9.16624 66.0936 9.51879C66.5133 9.68667 66.698 9.88813 66.698 10.0896C66.698 10.2743 66.463 10.4589 66.0433 10.4589C65.271 10.4589 64.5659 10.3918 63.9951 10.3918C63.2733 10.3918 62.5178 10.4589 62.1317 10.4589C61.712 10.4589 61.4434 10.3414 61.4434 10.1064C61.4434 9.87134 61.7288 9.68667 61.9638 9.61952C63.0046 9.28376 63.139 9.01515 63.1557 8.49472C63.2229 7.36993 63.29 5.60719 63.29 3.2065C63.29 2.83716 63.055 2.56856 62.4674 2.21601C62.182 1.99776 62.1317 1.91382 62.1317 1.86346C62.1988 1.662 62.4171 1.32624 62.6185 1.2423Z" fill="#355148"/>
<path d="M21.3379 10.4757H59.4131V0H21.3379V10.4757ZM57.0292 0.956916V9.5188H23.7218V0.956916H57.0292Z" fill="#355148"/>
<path d="M12.7582 1.41C13.1275 1.19175 13.8662 0.87278 14.353 0.604172C14.6552 0.469868 14.8399 0.369141 15.0413 0.369141C15.1421 0.369141 15.3267 0.62096 15.3267 0.7049C15.3435 1.04066 15.3435 1.51072 15.3771 1.86327C15.3771 1.93042 15.545 2.03115 15.6121 1.93042C16.3004 1.17496 17.2406 0.53702 18.1471 0.53702C18.8354 0.53702 19.4398 1.00708 19.4398 1.2589C19.4398 1.77933 18.8354 2.43407 18.4997 2.68589C18.3821 2.8034 18.2143 2.87055 18.1303 2.87055C17.9624 2.87055 17.8281 2.8034 17.5931 2.63552C17.4084 2.50122 17.0559 2.35012 16.7537 2.35012C16.334 2.35012 15.9815 2.48443 15.6793 2.88734C15.5785 3.00486 15.461 3.29025 15.461 3.42456C15.461 3.65959 15.4442 7.05077 15.5114 7.87338C15.5785 8.98139 15.7632 9.21642 16.8376 9.50181C17.3749 9.63612 17.677 9.83757 17.677 10.039C17.677 10.2237 17.3749 10.4419 17.0895 10.4419C16.3676 10.4419 15.1588 10.3412 14.4705 10.3412C13.6479 10.3412 13.2282 10.4084 12.5735 10.4084C12.1538 10.4084 11.9355 10.1565 11.9355 10.039C11.9355 9.78721 12.1874 9.63612 12.4728 9.55218C13.3961 9.21642 13.4633 8.86387 13.48 8.32665C13.5304 7.26901 13.5472 4.38147 13.5472 3.12237C13.5472 2.98807 13.5304 2.82019 12.9596 2.41728C12.7078 2.23261 12.4392 2.01436 12.4392 1.88006C12.4224 1.6786 12.5735 1.49394 12.7582 1.41Z" fill="#355148"/>
</svg>
